<svg xmlns="http://www.w3.org/2000/svg" viewBox="0 0 24 24" width="512" height="512">
  <rect width="24" height="24" rx="5.5" fill="#1c2733"/>
  <g transform="translate(3.55 3.3) scale(0.7)">
    <path d="M16.376 3.622a1 1 0 0 1 3.002 3.002L7.368 18.635a2 2 0 0 1-.855.506l-2.872.838a.5.5 0 0 1-.62-.62l.838-2.872a2 2 0 0 1 .506-.854z" fill="none" stroke="#faf9f6" stroke-width="2.2" stroke-linecap="round" stroke-linejoin="round"/>
    <g fill="#faf9f6" shape-rendering="crispEdges">
      <rect x="12" y="19.2" width="1.9" height="1.9"/>
      <rect x="15" y="19.2" width="1.9" height="1.9"/>
      <rect x="18" y="19.2" width="1.9" height="1.9"/>
      <rect x="21" y="19.2" width="1.9" height="1.9" fill="#ff8a5c"/>
    </g>
  </g>
</svg>
